<svg width="49" height="49" viewBox="0 0 49 49" fill="none" xmlns="http://www.w3.org/2000/svg">
  <g clip-path="url(#a)">
    <circle cx="35.307" cy="35" r="6" fill="#fff" />
    <path d="m34.914 29.003-.182.017a6.015 6.015 0 0 0-5.37 5.107c-.049.33-.055.427-.055.874s.006.544.054.874a6.024 6.024 0 0 0 4.104 4.847c.39.126.8.211 1.267.263.182.02.968.02 1.15 0a6.059 6.059 0 0 0 2.162-.632c.103-.053.123-.067.109-.079-.01-.007-.45-.597-.977-1.31l-.96-1.296-1.202-1.779a171.072 171.072 0 0 0-1.21-1.778c-.005-.001-.01.79-.012 1.755-.004 1.69-.005 1.758-.026 1.797a.213.213 0 0 1-.103.107c-.038.019-.07.023-.248.023h-.203l-.054-.035a.219.219 0 0 1-.078-.085l-.025-.053.002-2.351.004-2.353.036-.046a.32.32 0 0 1 .087-.071c.048-.024.067-.026.27-.026.24 0 .279.01.341.077.018.019.669 1 1.448 2.18.779 1.182 1.844 2.794 2.367 3.586l.95 1.439.048-.032a6.16 6.16 0 0 0 1.233-1.081 5.973 5.973 0 0 0 1.412-3.067c.048-.33.054-.427.054-.874s-.006-.544-.054-.874a6.024 6.024 0 0 0-5.353-5.109 15.445 15.445 0 0 0-.986-.015Zm2.456 3.629a.237.237 0 0 1 .119.138c.01.03.012.683.01 2.153l-.004 2.108-.372-.57-.373-.57V34.36c0-.992.005-1.549.012-1.576a.239.239 0 0 1 .116-.148c.048-.024.066-.026.25-.026.173 0 .204.002.242.023Z" fill="#000" />
  </g>
  <path fill-rule="evenodd" clip-rule="evenodd" d="M28.46 33.543h-.653a1.333 1.333 0 0 0-1.333-1.333H21.14a1.333 1.333 0 0 0-1.333 1.333h-9.333v2.667h9.333a1.334 1.334 0 0 0 1.334 1.333h5.333a1.334 1.334 0 0 0 1.333-1.333h.604a7.043 7.043 0 0 1 .048-2.667Z" fill="#276BB0" />
  <path fill-rule="evenodd" clip-rule="evenodd" d="M13.14 29.543h17.784a6.97 6.97 0 0 1 4.883-1.524v-5.142a1.333 1.333 0 0 0-1.333-1.334H13.14a1.333 1.333 0 0 0-1.334 1.334v5.333a1.333 1.333 0 0 0 1.333 1.333Zm21.334-18.666H13.14a1.333 1.333 0 0 0-1.334 1.333v5.333a1.333 1.333 0 0 0 1.333 1.334h21.334a1.333 1.333 0 0 0 1.333-1.334V12.21a1.333 1.333 0 0 0-1.333-1.334ZM21.14 16.21h-1.334v-2.667h1.334v2.667Zm0 10.666h-1.334V24.21h1.334v2.666ZM14.473 16.21v-2.667h2.666v2.667h-2.666Zm0 10.666V24.21h2.666v2.666h-2.666Z" fill="#CED1D6" />
  <defs>
    <clipPath id="a">
      <path fill="#fff" d="M29.307 29h12v12h-12z"/>
    </clipPath>
  </defs>
</svg>
